<?xml version="1.0" encoding="UTF-8" standalone="no"?>
<svg
   version="1.0"
   width="147.84869pt"
   height="355.35071pt"
   viewBox="0 0 147.84869 355.35071"
   preserveAspectRatio="xMidYMid"
   id="svg22010"
   xmlns="http://www.w3.org/2000/svg"
   xmlns:svg="http://www.w3.org/2000/svg">
  <defs
     id="defs22014" />
  <g
     transform="matrix(0.1,0,0,-0.1,-254,487.51739)"
     fill="#000000"
     stroke="none"
     id="g22008">
    <path fill="CurrentColor"
       d="m 3123,4869 c -45,-13 -100,-71 -112,-116 -15,-53 -14,-1114 0,-1167 21,-78 115,-137 192,-121 49,10 102,49 120,88 15,31 17,96 17,617 0,521 -2,586 -17,617 -30,65 -126,104 -200,82 z"
       id="path22000" />
    <path fill="CurrentColor"
       d="m 2655,4311 c -48,-22 -79,-54 -100,-103 -13,-33 -15,-165 -15,-1111 V 2023 l 23,-44 c 13,-24 43,-57 66,-74 42,-29 46,-30 182,-33 l 139,-4 v 131 c 0,72 1,134 3,138 1,4 -15,11 -36,15 -57,12 -96,35 -117,71 -19,31 -20,56 -20,870 0,692 2,843 14,871 17,42 66,77 116,83 l 40,6 v 132 132 l -82,6 c -129,10 -170,8 -213,-12 z"
       id="path22002" />
    <path fill="CurrentColor"
       d="m 3390,4161 v -140 l 67,-32 c 121,-58 196,-157 240,-319 16,-58 18,-116 18,-565 0,-447 -2,-508 -18,-577 -37,-158 -115,-263 -239,-321 l -68,-32 v -143 -143 l 38,7 c 146,27 285,99 378,195 97,102 147,207 186,389 18,85 21,143 25,533 7,601 -8,738 -104,936 -78,164 -220,277 -413,330 -119,33 -110,43 -110,-118 z"
       id="path22004" />
    <path fill="CurrentColor"
       d="m 3105,2716 c -41,-18 -82,-68 -94,-114 -14,-50 -14,-1105 0,-1155 13,-49 61,-103 106,-118 46,-15 118,-6 152,18 14,11 36,35 49,53 l 22,33 v 592 592 l -22,33 c -13,18 -35,42 -50,53 -34,26 -121,33 -163,13 z"
       id="path22006" />
  </g>
</svg>
